<svg width="72" height="72" viewBox="0 0 72 72" fill="none" xmlns="http://www.w3.org/2000/svg">
<path d="M66.1936 11.6129H34.8387V3.48387C34.8387 1.5631 33.2756 0 31.3548 0H3.48387C1.5631 0 0 1.5631 0 3.48387V26.7097C0 28.6305 1.5631 30.1935 3.48387 30.1935H9.29032V54.5806C9.29032 57.7823 11.8951 60.3871 15.0968 60.3871H27.871V65.0323H25.5484C24.2675 65.0323 23.2258 66.0739 23.2258 67.3548V69.6774C23.2258 70.9583 24.2675 72 25.5484 72H55.7419C57.0228 72 58.0645 70.9583 58.0645 69.6774V67.3548C58.0645 66.0739 57.0228 65.0323 55.7419 65.0323H53.4194V60.3871H66.1936C69.3952 60.3871 72 57.7823 72 54.5806V17.4194C72 14.2177 69.3952 11.6129 66.1936 11.6129ZM16.2581 31.8356L18.4401 34.0177C18.9615 34.5391 19.6839 34.8387 20.4225 34.8387C21.9681 34.8387 23.2258 33.581 23.2258 32.0354V30.1935H31.3548C33.156 30.1935 34.625 28.8139 34.8039 27.0592C35.2812 27.9894 35.8723 28.944 36.511 29.8707C32.3199 30.6778 30.1935 31.9541 30.1935 33.6774C30.1935 36.0163 34.1094 37.1764 38.1159 37.7535C39.6302 40.8356 42.7924 42.9677 46.4516 42.9677C47.297 42.9677 48.1134 42.8446 48.8926 42.631C51.473 44.5692 54.5284 46.4481 56.7081 46.4481C57.4305 46.4481 58.0575 46.2414 58.536 45.7618C59.7519 44.5459 59.3814 42.3511 57.4026 39.053C57.0995 38.5479 56.7523 38.0218 56.3865 37.4876C59.7751 36.8431 62.7097 35.7015 62.7097 33.6774C62.7097 31.7462 60.0399 30.377 54.7862 29.6001C53.273 26.5192 50.1108 24.3871 46.4516 24.3871C45.6062 24.3871 44.7898 24.5102 44.0106 24.7239C42.9944 23.9621 42.0074 23.285 41.076 22.7264C38.1646 20.9799 36.1161 20.4898 34.8387 21.2354V18.5806H65.0323V48.7742H16.2581V31.8356ZM46.4516 40.6452C44.2812 40.6452 42.3395 39.6465 41.0609 38.0857C43.661 38.3052 45.864 38.3226 46.4516 38.3226C47.0392 38.3226 49.2422 38.3052 51.8423 38.0857C50.5637 39.6465 48.6221 40.6452 46.4516 40.6452ZM54.3275 38.5815C56.376 41.5126 57.1726 43.5646 56.9195 44.1C56.6524 44.2312 54.9917 44.0965 51.3557 41.5533C52.5588 40.8019 53.575 39.7846 54.3275 38.5815ZM55.5956 32.0888C58.6579 32.6474 59.9632 33.3453 60.3174 33.6832C59.8657 34.157 58.2306 34.7818 55.5956 35.2637C55.6862 34.747 55.7419 34.2197 55.7419 33.6774C55.7419 33.1351 55.685 32.6055 55.5956 32.0888ZM48.4467 31.6823C49.8751 33.1107 51.0979 34.4694 52.1477 35.7364C50.472 35.899 48.571 36 46.4516 36C43.9049 36 41.6671 35.856 39.7684 35.6319C39.5861 35.0106 39.4839 34.3568 39.4839 33.6774C39.4839 30.8555 41.1735 28.4249 43.5914 27.331C45.0778 28.5108 46.7117 29.9485 48.4467 31.6823ZM46.4923 26.712C50.3024 26.7341 53.395 29.8277 53.417 33.6368C52.3963 32.4418 51.2791 31.2317 50.0888 30.0403C48.8984 28.8488 47.6872 27.7328 46.4923 26.712ZM37.3064 35.2637C34.6715 34.7818 33.0364 34.157 32.5846 33.6832C32.9388 33.3453 34.2441 32.6474 37.3064 32.0888C37.2182 32.6055 37.1613 33.1351 37.1613 33.6774C37.1613 34.2197 37.217 34.747 37.3064 35.2637ZM38.5757 28.7733C36.0302 25.1338 35.892 23.479 35.9826 23.2548C36.5435 22.9692 38.6071 23.7565 41.544 25.8027C40.3432 26.5552 39.3271 27.5714 38.5757 28.7733ZM2.32258 26.7097V3.48387C2.32258 2.84284 2.84284 2.32258 3.48387 2.32258H31.3548C31.9959 2.32258 32.5161 2.84284 32.5161 3.48387V26.7097C32.5161 27.3507 31.9959 27.871 31.3548 27.871H20.9032V32.0354C20.9044 32.4279 20.3586 32.652 20.0822 32.3756L15.5775 27.871H3.48387C2.84284 27.871 2.32258 27.3507 2.32258 26.7097ZM55.7443 69.6774H25.5484V67.3548H55.7419L55.7443 69.6774ZM51.0968 65.0323H30.1935V60.3871H51.0968V65.0323ZM69.6774 54.5806C69.6774 56.5014 68.1143 58.0645 66.1936 58.0645H15.0968C13.176 58.0645 11.6129 56.5014 11.6129 54.5806V30.1935H13.9355V48.7742C13.9355 50.0551 14.9772 51.0968 16.2581 51.0968H65.0323C66.3132 51.0968 67.3548 50.0551 67.3548 48.7742V18.5806C67.3548 17.2997 66.3132 16.2581 65.0323 16.2581H34.8387V13.9355H66.1936C68.1143 13.9355 69.6774 15.4986 69.6774 17.4194V54.5806Z" fill="#616FF6"/>
<path d="M21.1134 24.0142L22.5917 24.7063L27.0278 20.2702L26.3357 18.7919L27.8709 18.2333V11.96L26.3369 11.4037L27.029 9.92541L22.5929 5.48928L21.1145 6.18141L20.556 4.64502H14.2827L13.7264 6.17908L12.2481 5.48695L7.81197 9.92308L8.5041 11.4014L6.96771 11.96V18.2333L8.50178 18.7895L7.80965 20.2679L12.2458 24.704L13.7241 24.0119L14.2827 25.5482H20.556L21.1134 24.0142ZM18.9278 23.2257H15.9108L15.5624 22.2699L15.3278 21.7566L14.1306 21.2608L12.7393 21.9122L10.6049 19.7766L11.2564 18.3854L10.7384 17.1312L9.29029 16.6051V13.5881L10.246 13.2397L10.7593 13.0051L11.2552 11.8079L10.6049 10.4166L12.7393 8.28218L14.1306 8.93366L15.3847 8.41573L15.9108 6.9676H18.9278L19.2762 7.92334L19.5108 8.43663L20.7081 8.9325L22.0993 8.28102L24.2338 10.4155L23.5823 11.8067L24.1002 13.0609L25.5484 13.5881V16.6051L24.5926 16.9535L24.0793 17.1881L23.5835 18.3854L24.2349 19.7766L22.1005 21.9111L20.7093 21.2596L19.4551 21.7775L18.9278 23.2257Z" fill="#616FF6"/>
<path d="M23.2258 15.097C23.2258 11.8953 20.621 9.29053 17.4193 9.29053C14.2177 9.29053 11.6129 11.8953 11.6129 15.097C11.6129 18.2987 14.2177 20.9034 17.4193 20.9034C20.621 20.9034 23.2258 18.2987 23.2258 15.097ZM17.4193 18.5809C15.4986 18.5809 13.9355 17.0178 13.9355 15.097C13.9355 13.1762 15.4986 11.6131 17.4193 11.6131C19.3401 11.6131 20.9032 13.1762 20.9032 15.097C20.9032 17.0178 19.3401 18.5809 17.4193 18.5809Z" fill="#616FF6"/>
<path d="M66.1936 55.7418C66.8349 55.7418 67.3549 55.2219 67.3549 54.5805C67.3549 53.9391 66.8349 53.4192 66.1936 53.4192C65.5522 53.4192 65.0323 53.9391 65.0323 54.5805C65.0323 55.2219 65.5522 55.7418 66.1936 55.7418Z" fill="#616FF6"/>
<path d="M61.5484 55.7418C62.1898 55.7418 62.7098 55.2219 62.7098 54.5805C62.7098 53.9391 62.1898 53.4192 61.5484 53.4192C60.9071 53.4192 60.3871 53.9391 60.3871 54.5805C60.3871 55.2219 60.9071 55.7418 61.5484 55.7418Z" fill="#616FF6"/>
<path d="M56.9032 55.7418C57.5446 55.7418 58.0646 55.2219 58.0646 54.5805C58.0646 53.9391 57.5446 53.4192 56.9032 53.4192C56.2619 53.4192 55.7419 53.9391 55.7419 54.5805C55.7419 55.2219 56.2619 55.7418 56.9032 55.7418Z" fill="#616FF6"/>
<path d="M18.5807 44.1292H30.1936V46.4518H18.5807V44.1292Z" fill="#616FF6"/>
<path d="M18.5807 39.4839H30.1936V41.8065H18.5807V39.4839Z" fill="#616FF6"/>
</svg>
