<svg width="72" height="72" viewBox="0 0 72 72" fill="none" xmlns="http://www.w3.org/2000/svg">
<path d="M72 25.5484H69.9585L71.4031 24.1061L66.4746 19.1775L65.0323 20.621V18.5806H58.0645V20.6222L56.621 19.1775L51.6925 24.1061L53.1372 25.5484H51.0968V27.871H40.615C41.3524 26.8978 41.8064 25.6994 41.8064 24.3871V22.5453L45.5481 18.8036C47.628 16.7226 48.7742 13.9575 48.7742 11.0148C48.7742 4.94129 43.8329 0 37.7594 0H34.2418C28.1671 0 23.2258 4.94129 23.2258 11.0148C23.2258 13.9564 24.372 16.7226 26.4519 18.8036L30.1935 22.5453V24.3871C30.1935 26.2765 31.1145 27.9418 32.5161 29.0021V34.8387H27.871V23.2258C27.871 21.9449 26.8293 20.9032 25.5484 20.9032H15.8249H12.0461H2.32258C1.04168 20.9032 0 21.9449 0 23.2258V46.4516C0 47.7325 1.04168 48.7742 2.32258 48.7742H25.5484C26.8293 48.7742 27.871 47.7325 27.871 46.4516V37.1613H32.5161V62.7097H25.5484V58.0645H23.5068L24.9515 56.6222L20.023 51.6937L18.5806 53.1372V51.0968H11.6129V53.1383L10.1694 51.6937L5.2409 56.6222L6.68555 58.0645H4.64516V65.0323H6.68671L5.24206 66.4746L10.1706 71.4031L11.6129 69.9585V72H18.5806V69.9585L20.0241 71.4031L24.9526 66.4746L23.508 65.0323H24.3871H25.5484H32.5161C33.797 65.0323 34.8387 63.9906 34.8387 62.7097V30.0763C35.2138 30.1529 35.6028 30.1935 36 30.1935C36.3972 30.1935 36.7862 30.1529 37.1613 30.0763V48.7742C37.1613 50.0551 38.203 51.0968 39.4839 51.0968H44.129V67.3548C44.129 68.6357 45.1707 69.6774 46.4516 69.6774H69.6774C70.9583 69.6774 72 68.6357 72 67.3548V44.129C72 42.8481 70.9583 41.8064 69.6774 41.8064H59.9539H56.1751H46.4516C45.1707 41.8064 44.129 42.8481 44.129 44.129V48.7742H39.4839V30.1935H51.0968V32.5161H53.1383L51.6937 33.9585L56.6222 38.887L58.0645 37.4423V39.4839H65.0323V37.4423L66.4757 38.887L71.4043 33.9585L69.9596 32.5161H72V25.5484ZM15.8249 23.2258C18.6248 23.2258 20.9032 25.5043 20.9032 28.3041C20.9032 29.1159 20.7023 29.9032 20.3342 30.6186C19.7117 29.6663 18.6399 29.0323 17.4194 29.0323H16.9606C14.7286 29.0323 12.6557 27.9232 11.4178 26.0652L9.48542 27.353C9.7711 27.7815 10.0893 28.1799 10.4365 28.5468L9.76877 28.6804C8.74916 28.8836 7.90723 29.5258 7.42064 30.3852C7.12568 29.7348 6.96774 29.0288 6.96774 28.3041C6.96774 25.5043 9.24619 23.2258 12.0461 23.2258H15.8249ZM20.527 46.4516H7.344C8.10697 44.3241 9.57716 42.5381 11.5397 41.3733C12.2876 41.6485 13.0924 41.8064 13.9355 41.8064C14.7786 41.8064 15.5834 41.6485 16.3312 41.3733C18.2938 42.5381 19.7652 44.3241 20.527 46.4516ZM13.9355 39.4839C11.3737 39.4839 9.29032 37.4005 9.29032 34.8387V32.0981C9.29032 31.5453 9.68284 31.0668 10.224 30.96L12.9507 30.4142C14.177 31.0239 15.545 31.3548 16.9606 31.3548H17.4194C18.0592 31.3548 18.5806 31.8751 18.5806 32.5161V34.8387C18.5806 37.4005 16.4973 39.4839 13.9355 39.4839ZM2.32258 23.2258H6.67742C5.4209 24.5532 4.64516 26.3381 4.64516 28.3041C4.64516 29.7697 5.07484 31.1888 5.88774 32.4093L6.96774 34.0293V34.8387C6.96774 36.9163 7.88632 38.7778 9.33213 40.0552C7.19187 41.6381 5.64155 43.8701 4.90877 46.4516H2.32258V23.2258ZM22.9622 46.4516C22.2306 43.8701 20.6791 41.6381 18.5388 40.0552C19.9846 38.7778 20.9032 36.9163 20.9032 34.8387V34.0293L21.9832 32.4093C22.7961 31.1888 23.2258 29.7697 23.2258 28.3041C23.2258 26.3381 22.4501 24.5532 21.1935 23.2258H25.5484L25.5495 46.4516H22.9622ZM23.2258 62.7271C22.4001 62.827 21.6859 63.3612 21.3619 64.1439C21.0379 64.9277 21.1645 65.8092 21.6778 66.4641L20.0114 68.1306C19.3575 67.6173 18.475 67.4895 17.6911 67.8147C16.9072 68.1399 16.3742 68.8517 16.2755 69.6774H13.9192C13.8205 68.8517 13.2863 68.1376 12.5025 67.8135C11.7209 67.4884 10.8372 67.6161 10.1822 68.1294L8.51574 66.463C9.02903 65.8092 9.15561 64.9266 8.83161 64.1427C8.50761 63.3612 7.79342 62.827 6.96774 62.7271V60.3708C7.79342 60.271 8.50761 59.7368 8.83161 58.9541C9.15561 58.1702 9.02903 57.2888 8.51574 56.6338L10.1822 54.9674C10.8372 55.4818 11.7197 55.6072 12.5025 55.2832C13.2852 54.9592 13.8194 54.245 13.9192 53.4194H16.2755C16.3754 54.2462 16.9095 54.9592 17.6923 55.2832C18.4773 55.6061 19.3587 55.4818 20.0125 54.9674L21.679 56.6338C21.1657 57.2876 21.0391 58.1702 21.3631 58.9541C21.6871 59.7368 22.4013 60.271 23.227 60.3708V62.7271H23.2258ZM58.0645 60.3871C55.5027 60.3871 53.4194 58.3037 53.4194 55.7419V53.0013C53.4194 52.4485 53.8119 51.9701 54.353 51.8632L57.0797 51.3174C58.3061 51.9271 59.6741 52.2581 61.0897 52.2581H61.5484C62.1883 52.2581 62.7097 52.7783 62.7097 53.4194V55.7419C62.7097 58.3037 60.6263 60.3871 58.0645 60.3871ZM55.6688 62.2765C56.4166 62.5517 57.2214 62.7097 58.0645 62.7097C58.9076 62.7097 59.7124 62.5517 60.4603 62.2765C62.4228 63.4413 63.893 65.2285 64.656 67.3548H51.473C52.236 65.2274 53.7062 63.4413 55.6688 62.2765ZM69.6786 67.3548H67.0901C66.3585 64.7733 64.807 62.5413 62.6667 60.9585C64.1137 59.681 65.0323 57.8195 65.0323 55.7419V54.9325L66.1123 53.3125C66.9252 52.092 67.3548 50.6729 67.3548 49.2074C67.3548 47.2413 66.5791 45.4564 65.3226 44.129H69.6774L69.6786 67.3548ZM59.9539 44.129C62.7538 44.129 65.0323 46.4075 65.0323 49.2074C65.0323 50.0191 64.8314 50.8064 64.4632 51.5218C63.8408 50.5695 62.7689 49.9355 61.5484 49.9355H61.0897C58.8577 49.9355 56.7848 48.8265 55.5468 46.9684L53.6144 48.2563C53.9001 48.6848 54.2183 49.0831 54.5655 49.4501L53.8978 49.5836C52.8782 49.7868 52.0363 50.429 51.5497 51.2884C51.2559 50.6357 51.0968 49.9297 51.0968 49.205C51.0968 46.4075 53.3752 44.129 56.1751 44.129H59.9539ZM46.4516 44.129H50.8064C49.5499 45.4564 48.7742 47.2413 48.7742 49.2074C48.7742 50.6729 49.2039 52.092 50.0168 53.3125L51.0968 54.9325V55.7419C51.0968 57.8195 52.0154 59.681 53.4612 60.9585C51.3209 62.5401 49.7706 64.7733 49.0378 67.3548H46.4516V44.129ZM32.5161 11.6129H31.3548C30.715 11.6129 30.1935 11.0926 30.1935 10.4516C30.1935 9.81058 30.715 9.29032 31.3548 9.29032C31.9947 9.29032 32.5161 9.81058 32.5161 10.4516V11.6129ZM37.1613 20.9032H34.8387V13.9355H37.1613V20.9032ZM28.0939 17.1615C26.453 15.5195 25.5484 13.3363 25.5484 11.0148C25.5484 6.22103 29.448 2.32258 34.2406 2.32258H37.7582C42.552 2.32258 46.4516 6.22103 46.4516 11.0148C46.4516 13.3363 45.547 15.5195 43.9061 17.1615L40.1644 20.9032H39.4839V13.9355H40.6452C42.5659 13.9355 44.129 12.3724 44.129 10.4516C44.129 8.53084 42.5659 6.96774 40.6452 6.96774C38.7244 6.96774 37.1613 8.53084 37.1613 10.4516V11.6129H34.8387V10.4516C34.8387 8.53084 33.2756 6.96774 31.3548 6.96774C29.4341 6.96774 27.871 8.53084 27.871 10.4516C27.871 12.3724 29.4341 13.9355 31.3548 13.9355H32.5161V20.9032H31.8356L28.0939 17.1615ZM39.4839 11.6129V10.4516C39.4839 9.81058 40.0053 9.29032 40.6452 9.29032C41.285 9.29032 41.8064 9.81058 41.8064 10.4516C41.8064 11.0926 41.285 11.6129 40.6452 11.6129H39.4839ZM32.5161 24.3871V23.2258H39.4839V24.3871C39.4839 26.3079 37.9208 27.871 36 27.871C34.0792 27.871 32.5161 26.3079 32.5161 24.3871ZM69.6774 30.211C68.8517 30.3108 68.1376 30.845 67.8135 31.6277C67.4895 32.4116 67.6161 33.293 68.1294 33.948L66.463 35.6144C65.8092 35.1023 64.9266 34.9723 64.1427 35.2986C63.36 35.6214 62.8258 36.3356 62.7271 37.1613H60.3708C60.2721 36.3356 59.7379 35.6214 58.9541 35.2974C58.1725 34.9734 57.2888 35.1 56.6338 35.6133L54.9674 33.9468C55.4806 33.293 55.6072 32.4104 55.2832 31.6266C54.9592 30.8439 54.245 30.3097 53.4194 30.2098V27.8535C54.245 27.7537 54.9592 27.2195 55.2832 26.4368C55.6072 25.6529 55.4806 24.7715 54.9674 24.1165L56.6338 22.4501C57.2876 22.9645 58.1714 23.0888 58.9541 22.7659C59.7368 22.4419 60.271 21.7277 60.3708 20.9021H62.7271C62.827 21.7289 63.3612 22.4419 64.1439 22.7659C64.9289 23.0899 65.8103 22.9634 66.4641 22.4501L68.1306 24.1165C67.6173 24.7703 67.4907 25.6529 67.8147 26.4368C68.1387 27.2195 68.8529 27.7537 69.6786 27.8535V30.211H69.6774Z" fill="#616FF6"/>
<path d="M61.5484 23.2258C58.3467 23.2258 55.7419 25.8306 55.7419 29.0323C55.7419 32.234 58.3467 34.8387 61.5484 34.8387C64.7501 34.8387 67.3549 32.234 67.3549 29.0323C67.3549 25.8306 64.7501 23.2258 61.5484 23.2258ZM61.5484 32.5162C59.6276 32.5162 58.0645 30.9531 58.0645 29.0323C58.0645 27.1115 59.6276 25.5484 61.5484 25.5484C63.4692 25.5484 65.0323 27.1115 65.0323 29.0323C65.0323 30.9531 63.4692 32.5162 61.5484 32.5162Z" fill="#616FF6"/>
<path d="M15.0967 55.7419C11.8951 55.7419 9.29028 58.3467 9.29028 61.5484C9.29028 64.7501 11.8951 67.3549 15.0967 67.3549C18.2984 67.3549 20.9032 64.7501 20.9032 61.5484C20.9032 58.3467 18.2984 55.7419 15.0967 55.7419ZM15.0967 65.0323C13.176 65.0323 11.6129 63.4692 11.6129 61.5484C11.6129 59.6276 13.176 58.0645 15.0967 58.0645C17.0175 58.0645 18.5806 59.6276 18.5806 61.5484C18.5806 63.4692 17.0175 65.0323 15.0967 65.0323Z" fill="#616FF6"/>
</svg>
