<svg width="30" height="26" viewBox="0 0 30 26" fill="none" xmlns="http://www.w3.org/2000/svg">
<path d="M28.3333 24.3334V9.66669H24.3333V24.3334H28.3333Z" fill="white"/>
<path d="M24.3333 9.66668C19.5966 5.28668 16.8506 2.77535 16.0953 2.13335C14.962 1.16935 13.682 1.57402 13.682 3.98602C13.682 6.39802 17.1906 7.82935 17.1906 9.66668C17.1933 9.67735 12.686 9.67802 3.66929 9.66868C3.40654 9.66833 3.14629 9.71976 2.90341 9.82003C2.66054 9.9203 2.43981 10.0674 2.25383 10.2531C2.06784 10.4387 1.92026 10.6591 1.8195 10.9018C1.71875 11.1444 1.6668 11.4046 1.66663 11.6673V11.6693C1.66663 12.2005 1.87762 12.7099 2.25319 13.0854C2.62877 13.461 3.13815 13.672 3.66929 13.672H8.34463C9.14863 18.9847 9.59263 21.8734 9.67596 22.3387C9.80129 23.0347 10.4666 24.3334 12.3786 24.3334H24.3333V9.66668Z" fill="white"/>
<path d="M28.3333 24.3334V9.66669H24.3333V24.3334H28.3333Z" stroke="#1E1E1C" stroke-width="2" stroke-linejoin="round"/>
<path d="M24.3333 9.66668C19.5966 5.28668 16.8506 2.77535 16.0953 2.13335C14.962 1.16935 13.682 1.57402 13.682 3.98602C13.682 6.39802 17.1906 7.82935 17.1906 9.66668C17.1933 9.67735 12.686 9.67802 3.66929 9.66868C3.40654 9.66833 3.14629 9.71976 2.90341 9.82003C2.66054 9.9203 2.43981 10.0674 2.25383 10.2531C2.06784 10.4387 1.92026 10.6591 1.8195 10.9018C1.71875 11.1444 1.6668 11.4046 1.66663 11.6673V11.6693C1.66663 12.2005 1.87762 12.7099 2.25319 13.0854C2.62877 13.461 3.13815 13.672 3.66929 13.672H8.34463C9.14863 18.9847 9.59263 21.8734 9.67596 22.3387C9.80129 23.0347 10.4666 24.3334 12.3786 24.3334H24.3333V9.66668Z" stroke="#1E1E1C" stroke-width="2" stroke-linejoin="round"/>
</svg>
