<svg width="136" height="50" viewBox="0 0 136 50" fill="none" xmlns="http://www.w3.org/2000/svg">
    <path d="M10.3345 23.3313C4.05603 23.3313 0 28.0392 0 33.5225C0 39.0058 4.05603 43.6859 10.3345 43.6859C16.6131 43.6859 20.6691 39.0058 20.6691 33.5225C20.6691 28.0392 16.6131 23.3313 10.3345 23.3313ZM10.3345 27.1807C13.835 27.1807 16.2519 29.7839 16.2519 33.5225C16.2519 37.2611 13.835 39.8366 10.3345 39.8366C6.83414 39.8366 4.41719 37.2611 4.41719 33.5225C4.41719 29.7839 6.83414 27.1807 10.3345 27.1807Z" fill="#E5E9FE"/>
    <path d="M31.1551 30.1439C30.1272 30.1439 28.4604 30.4485 27.238 31.667L26.7102 30.5593H23.4598V49.0861H27.6547V42.5228C28.7938 43.4367 30.2384 43.6859 31.1551 43.6859C34.8222 43.6859 37.6003 40.7227 37.6003 36.9011C37.6003 33.0794 34.8222 30.1439 31.1551 30.1439ZM30.5162 33.6333C32.3219 33.6333 33.3776 35.1564 33.3776 36.9011C33.3776 38.6457 32.3219 40.1966 30.5162 40.1966C28.7104 40.1966 27.6547 38.6457 27.6547 36.9011C27.6547 35.1564 28.7104 33.6333 30.5162 33.6333Z" fill="#E5E9FE"/>
    <path d="M46.1712 30.5593V26.5438H41.9763V30.5593H38.6981V34.0486H41.9763V38.3411C41.9763 43.0767 45.8934 44.6275 49.3938 43.1321L50.644 42.6059L49.3938 39.2827L48.4215 39.6427C47.2269 40.0858 46.1712 39.5042 46.1712 38.2857V34.0486H50.5329V30.5593H46.1712Z" fill="#E5E9FE"/>
    <path d="M55.6615 23.9683C54.3836 23.9683 53.4112 24.9375 53.4112 26.2114C53.4112 27.4853 54.3836 28.4546 55.6615 28.4546C56.9394 28.4546 57.9118 27.4853 57.9118 26.2114C57.9118 24.9375 56.9394 23.9683 55.6615 23.9683ZM57.7729 43.2705V30.5593H53.5779V43.2705H57.7729Z" fill="#E5E9FE"/>
    <path d="M65.5824 43.2705V23.7467H61.3874V43.2705H65.5824Z" fill="#E5E9FE"/>
    <path d="M75.3127 30.1439C71.0066 30.1439 68.2285 33.2179 68.2285 36.9288C68.2285 40.6397 71.0066 43.6859 75.3127 43.6859C79.6187 43.6859 82.3968 40.6397 82.3968 36.9288C82.3968 33.2179 79.6187 30.1439 75.3127 30.1439ZM75.3127 33.6333C77.0907 33.6333 78.1741 35.1287 78.1741 36.9288C78.1741 38.7288 77.0907 40.1966 75.3127 40.1966C73.5347 40.1966 72.4512 38.7288 72.4512 36.9288C72.4512 35.1287 73.5347 33.6333 75.3127 33.6333Z" fill="#E5E9FE"/>
    <path d="M90.5454 30.1439C86.9338 30.1439 84.128 32.7748 84.128 36.541C84.128 40.3073 86.9338 42.9659 90.5454 42.9659C91.4899 42.9659 92.879 42.7167 94.018 41.8859V43.4367C94.018 44.8767 93.2957 46.5107 91.101 46.5107C89.1563 46.5107 88.1006 45.3475 87.9895 43.5475L84.0724 44.2121C84.5447 47.8122 87.1283 50 90.9621 50C96.2127 50 98.2407 46.206 98.2407 42.9659V30.5593H94.9903L94.4625 31.667C93.2401 30.4485 91.5733 30.1439 90.5454 30.1439ZM91.1843 33.6333C92.879 33.6333 94.0458 34.9071 94.0458 36.541C94.0458 38.175 92.879 39.4765 91.1843 39.4765C89.4897 39.4765 88.3229 38.175 88.3229 36.541C88.3229 34.9071 89.4897 33.6333 91.1843 33.6333Z" fill="#E5E9FE"/>
    <path d="M106.227 43.2705V30.5593H102.032V43.2705H106.227Z" fill="#E5E9FE"/>
    <path d="M115.926 30.1439C111.675 30.1439 108.869 33.2732 108.869 36.9288C108.869 40.5843 111.675 43.6859 115.926 43.6859C118.648 43.6859 121.343 42.1905 122.204 39.0335L118.342 38.175C118.009 39.4489 117.092 40.1966 115.842 40.1966C114.481 40.1966 113.092 39.1719 113.092 36.9288C113.092 34.6856 114.481 33.6333 115.842 33.6333C117.092 33.6333 118.009 34.381 118.342 35.6549L122.204 34.7964C121.343 31.6393 118.648 30.1439 115.926 30.1439Z" fill="#E5E9FE"/>
<g clip-path="url(#clip0)">
<path d="M128.179 0.00170224L120.282 4.52129L128.104 17.9877L136.001 13.4681L128.179 0.00170224Z" fill="url(#paint0_linear)"/>
<path d="M102.049 24.2236L110.623 9.35223L114.967 16.8288L102.049 24.2236Z" fill="url(#paint1_linear)"/>
<path d="M114.967 16.8288L102.049 24.2236L119.311 24.3068" fill="url(#paint2_linear)"/>
<path d="M109.326 7.11939L120.607 26.5394C122.995 22.6846 123.235 17.6861 120.798 13.4919C118.36 9.29761 113.883 6.99807 109.326 7.11939Z" fill="url(#paint3_linear)"/>
</g>
<defs>
<linearGradient id="paint0_linear" x1="123.91" y1="11.3219" x2="131.73" y2="7.06854" gradientUnits="userSpaceOnUse">
<stop stop-color="#60F0A6"/>
<stop offset="1" stop-color="#14BF50"/>
</linearGradient>
<linearGradient id="paint1_linear" x1="113.407" y1="12.5393" x2="102.086" y2="24.3839" gradientUnits="userSpaceOnUse">
<stop stop-color="#38D97C"/>
<stop offset="1" stop-color="#57F0A0"/>
</linearGradient>
<linearGradient id="paint2_linear" x1="117.559" y1="20.4525" x2="102.055" y2="24.3714" gradientUnits="userSpaceOnUse">
<stop stop-color="#14BE50"/>
<stop offset="1" stop-color="#4BE893"/>
</linearGradient>
<linearGradient id="paint3_linear" x1="114.872" y1="16.4349" x2="121.71" y2="15.4549" gradientUnits="userSpaceOnUse">
<stop stop-color="#41E086"/>
<stop offset="1" stop-color="#11BC4D"/>
</linearGradient>
<clipPath id="clip0">
<rect width="33.9511" height="26.5394" fill="white" transform="translate(102.049)"/>
</clipPath>
</defs>
</svg>
