<svg width="72" height="72" viewBox="0 0 72 72" fill="none" xmlns="http://www.w3.org/2000/svg">
<path d="M72 36V29.0323C72 27.1115 70.4369 25.5484 68.5161 25.5484H59.3988C60.0364 24.091 60.3871 22.5197 60.3871 20.9032C60.3871 14.4999 55.1775 9.29032 48.7742 9.29032C48.2679 9.29032 47.7569 9.32516 47.2448 9.39368C44.5808 3.6569 38.8986 0 32.5161 0C25.6425 0 19.5236 4.36065 17.2231 10.7431C16.5437 10.5585 15.833 10.4516 15.0968 10.4516C11.4317 10.4516 8.29393 12.8625 7.29755 16.2999C3.20516 16.7179 0 20.1855 0 24.3871C0 28.8697 3.64761 32.5161 8.12903 32.5161H9.29032V41.8064H5.95974L12.7742 52.0293L19.5886 41.8064H16.2581V32.5161H21.8299L18.7328 37.1613H22.0645V51.0968H29.0323V37.1613H32.3628L29.2657 32.5161H34.8387V36C34.8387 37.512 35.813 38.7894 37.1613 39.2702V42.0213C35.813 42.5021 34.8387 43.7795 34.8387 45.2915V49.3804C33.5137 50.4755 32.4 51.84 31.5929 53.4205H5.80645C2.60477 53.4205 0 56.0253 0 59.227C0 62.4286 2.60477 65.0334 5.80645 65.0334H31.5929C33.7657 69.2907 38.1495 72.0012 42.9677 72.0012H68.5161C70.4369 72.0012 72 70.4381 72 68.5173V61.5495C72 60.0375 71.0257 58.7601 69.6774 58.2794V55.5283C71.0257 55.0475 72 53.7701 72 52.2581V45.2903C72 43.7783 71.0257 42.5009 69.6774 42.0201V39.269C71.0257 38.7894 72 37.512 72 36ZM39.4839 41.8064V39.4839H67.3548V41.8064H39.4839ZM69.6774 29.0323V36C69.6774 36.6399 69.1572 37.1613 68.5161 37.1613H38.3226C37.6815 37.1613 37.1613 36.6399 37.1613 36V29.0323C37.1613 28.3924 37.6815 27.871 38.3226 27.871H68.5161C69.1572 27.871 69.6774 28.3924 69.6774 29.0323ZM12.7742 47.8417L10.2983 44.129H11.6129V30.1935H13.9355V44.129H15.2501L12.7742 47.8417ZM26.7097 34.8387V48.7742H24.3871V34.8387H23.0725L25.5484 31.1261L28.0243 34.8387H26.7097ZM27.7177 30.1935L25.5484 26.9385L23.3791 30.1935H16.2581V27.871H9.29032V30.1935H8.12903C4.92735 30.1935 2.32258 27.5888 2.32258 24.3871C2.32258 21.1854 4.92735 18.5806 8.12903 18.5806C11.3307 18.5806 13.9355 21.1854 13.9355 24.3871H16.2581C16.2581 20.4492 13.4419 17.1581 9.71884 16.416C10.584 14.2525 12.6755 12.7742 15.0968 12.7742C18.2985 12.7742 20.9032 15.379 20.9032 18.5806H23.2258C23.2258 15.6635 21.6755 13.1075 19.361 11.6733C21.2934 6.12697 26.5726 2.32258 32.5161 2.32258C38.2587 2.32258 43.3394 5.77742 45.461 11.1252L45.8245 12.0414L46.7872 11.8312C47.4526 11.6861 48.1215 11.6129 48.7742 11.6129C53.8966 11.6129 58.0645 15.7808 58.0645 20.9032C58.0645 22.5511 57.6116 24.1374 56.7929 25.5484H53.9535C55.0614 24.3139 55.7419 22.6893 55.7419 20.9032C55.7419 17.0605 52.6169 13.9355 48.7742 13.9355V16.2581C51.336 16.2581 53.4194 18.3414 53.4194 20.9032C53.4194 23.465 51.336 25.5484 48.7742 25.5484H38.3226C36.4018 25.5484 34.8387 27.1115 34.8387 29.0323V30.1935H27.7177ZM2.32258 59.2258C2.32258 57.305 3.88568 55.7419 5.80645 55.7419H9.29032V62.7097H5.80645C3.88568 62.7097 2.32258 61.1466 2.32258 59.2258ZM33.3917 63.4064L33.3406 63.2892C32.7972 62.0024 32.5161 60.6368 32.5161 59.2258C32.5161 58.8728 32.5335 58.5244 32.5684 58.1818L30.2574 57.9484C30.2156 58.3688 30.1935 58.795 30.1935 59.2258C30.1935 60.4184 30.3689 61.5821 30.6883 62.7097H11.6129V60.3871H27.871V58.0645H11.6129V55.7419H33.0875L33.3917 55.0452C35.057 51.2361 38.8161 48.7742 42.9677 48.7742C46.519 48.7742 49.7334 50.5219 51.6565 53.4194H46.4516C43.2499 53.4194 40.6452 56.0241 40.6452 59.2258C40.6452 62.4275 43.2499 65.0323 46.4516 65.0323H51.6554C49.7323 67.9297 46.5178 69.6774 42.9677 69.6774C38.8161 69.6774 35.057 67.2155 33.3917 63.4064ZM54.5806 55.7419H67.3548V58.0645H43.1814C43.6622 56.7163 44.9396 55.7419 46.4516 55.7419H53.4194H54.5806ZM69.6774 68.5161C69.6774 69.156 69.1572 69.6774 68.5161 69.6774H50.2746C52.0363 68.4464 53.4995 66.7788 54.4657 64.7861L54.5818 64.5457V62.7097H46.4528C44.9408 62.7097 43.6634 61.7354 43.1826 60.3871H68.5161C69.1572 60.3871 69.6774 60.9085 69.6774 61.5484V68.5161ZM69.6774 52.2581C69.6774 52.8979 69.1572 53.4194 68.5161 53.4194H54.3344C52.1628 49.1795 47.736 46.4516 42.9677 46.4516C40.9006 46.4516 38.9276 46.9754 37.1613 47.8812V45.2903C37.1613 44.6505 37.6815 44.129 38.3226 44.129H68.5161C69.1572 44.129 69.6774 44.6505 69.6774 45.2903V52.2581Z" fill="#616FF6"/>
<path d="M5.80643 60.387C6.44779 60.387 6.96772 59.8671 6.96772 59.2257C6.96772 58.5844 6.44779 58.0645 5.80643 58.0645C5.16507 58.0645 4.64514 58.5844 4.64514 59.2257C4.64514 59.8671 5.16507 60.387 5.80643 60.387Z" fill="#616FF6"/>
<path d="M27.3542 5.85285L28.389 7.93272C29.0428 7.60756 29.7361 7.3602 30.4514 7.19762L29.937 4.93311C29.0416 5.13633 28.1718 5.44523 27.3542 5.85285Z" fill="#616FF6"/>
<path d="M41.2781 13.161L43.4671 12.3876C41.8308 7.75636 37.4295 4.64526 32.5161 4.64526V6.96785C36.4471 6.96785 39.9681 9.45649 41.2781 13.161Z" fill="#616FF6"/>
</svg>
