<svg width="72" height="72" viewBox="0 0 72 72" fill="none" xmlns="http://www.w3.org/2000/svg">
<path d="M59.2258 46.4517C55.8848 46.4517 52.8492 47.7512 50.5707 49.8578L51.0039 48.1263C51.0666 47.8767 51.0968 47.6212 51.0968 47.2705C51.0968 45.5378 49.6881 44.1292 47.9566 44.1292C46.5515 44.1292 45.3077 45.0745 44.9303 46.4285L39.7626 65.0324H34.8387C34.8387 62.4706 32.7554 60.3872 30.1935 60.3872H30.1819C30.1401 58.2632 29.1867 56.3366 27.6538 55.0163C28.2228 54.5808 28.6479 53.9769 28.8639 53.2755C34.9734 52.1792 39.4839 46.8745 39.4839 40.5814V30.1937H37.1613V40.5814C37.1613 40.996 37.1299 41.4036 37.0835 41.8066H30.1935V43.9863C30.1935 46.0337 31.0692 47.9603 32.537 49.3236C31.4199 50.0854 30.1506 50.6463 28.7698 50.9378C28.2472 49.6708 27.0023 48.7743 25.5484 48.7743C23.6462 48.7743 21.996 50.0622 21.5361 51.9075L21.1854 53.3068C19.6885 52.9166 18.5806 51.5533 18.5806 49.9356V46.4517C19.8615 46.4517 20.9032 45.4101 20.9032 44.1292V41.0111C23.645 39.7035 25.5484 36.9117 25.5484 33.6776C25.5484 30.9265 24.1723 28.4959 22.075 27.0234C23.2479 26.0757 24.7099 25.5485 26.251 25.5485H32.5161V23.2259H26.251C24.2942 23.2259 22.4338 23.8612 20.9032 25.0004V16.2582H23.2258V13.9356H20.9032C20.9032 12.6547 19.8615 11.613 18.5806 11.613H16.2581C14.9772 11.613 13.9355 12.6547 13.9355 13.9356V14.1586C5.80645 15.9737 0 23.1249 0 31.5477V32.3769C0 39.8963 4.75781 46.648 11.8394 49.1761L16.344 50.7845C16.4102 51.2293 16.5147 51.659 16.675 52.0643C13.5523 54.028 11.6129 57.5014 11.6129 61.2001C11.6129 67.1552 16.4578 72.0001 22.4141 72.0001H42.3163C43.9177 72.0001 45.3077 70.9143 45.6956 69.3617L47.1774 63.4321C48.9217 68.4117 53.6574 72.0001 59.2258 72.0001C66.269 72.0001 72 66.2692 72 59.2259C72 52.1827 66.269 46.4517 59.2258 46.4517ZM32.5161 65.0324H30.1935V62.7098C31.4745 62.7098 32.5161 63.7515 32.5161 65.0324ZM36.5423 44.1292C36.0534 45.5041 35.2916 46.7502 34.3126 47.8C33.228 46.8954 32.5591 45.5622 32.5173 44.1292H36.5423ZM23.7879 52.4707C23.9911 51.6613 24.7146 51.0969 25.5484 51.0969C26.1894 51.0969 26.7097 51.6183 26.7097 52.2582C26.7097 52.8981 26.1894 53.4195 25.5484 53.4195H23.551L23.7879 52.4707ZM18.5806 44.1292H16.2581V41.7137C16.639 41.7683 17.0245 41.8066 17.4194 41.8066C17.8142 41.8066 18.1997 41.7683 18.5806 41.7137V44.1292ZM23.2258 33.6776C23.2258 36.8792 20.621 39.484 17.4194 39.484C14.2177 39.484 11.6129 36.8792 11.6129 33.6776C11.6129 30.4759 14.2177 27.8711 17.4194 27.8711C20.621 27.8711 23.2258 30.4759 23.2258 33.6776ZM18.5806 13.9356V25.6414C18.1997 25.5868 17.8142 25.5485 17.4194 25.5485C17.0245 25.5485 16.639 25.5868 16.2581 25.6414V13.9356H18.5806ZM2.32258 32.3757V31.5466C2.32258 24.3954 7.13032 18.2858 13.9355 16.5299V26.344C11.1937 27.6516 9.29032 30.4434 9.29032 33.6776C9.29032 36.9117 11.1937 39.7035 13.9355 41.0111V44.1292C13.9355 45.4101 14.9772 46.4517 16.2581 46.4517V48.2877L12.6197 46.9883C6.46026 44.7888 2.32258 38.9173 2.32258 32.3757ZM13.9355 61.2001C13.9355 58.2865 15.4684 55.5481 17.9361 54.0106C18.9894 55.0778 20.4503 55.7421 22.0645 55.7421H24.2071C26.3218 56.3192 27.7966 58.1994 27.8594 60.3872H23.1794C23.069 59.2016 22.5778 58.096 21.7243 57.2425L20.0822 58.8857C20.5084 59.3107 20.772 59.853 20.8614 60.4372C19.692 60.5556 18.6027 61.0445 17.7596 61.8876L19.4017 63.5308C19.9312 63.0013 20.6361 62.7098 21.384 62.7098H27.871V69.6776H22.4141C17.7387 69.6776 13.9355 65.8743 13.9355 61.2001ZM42.3151 69.6776H30.1935V67.355H43.8039L43.4427 68.7973C43.3126 69.3152 42.8493 69.6776 42.3151 69.6776ZM44.3845 65.0324H42.1734L47.1681 47.051C47.2657 46.6979 47.5897 46.4517 47.9566 46.4517C48.4084 46.4517 48.7742 46.8187 48.7742 47.3692C48.7742 47.4354 48.7649 47.5039 48.7498 47.5677L44.3845 65.0324ZM52.704 67.3794C53.6574 64.5853 56.2703 62.7098 59.2258 62.7098C62.1824 62.7098 64.7954 64.5853 65.7476 67.3794C63.9581 68.8136 61.6924 69.6776 59.2258 69.6776C56.7592 69.6776 54.4935 68.8136 52.704 67.3794ZM55.9556 58.0646H62.4948C62.0141 59.4129 60.7366 60.3872 59.2246 60.3872C57.7126 60.3872 56.4364 59.4129 55.9556 58.0646ZM55.9556 55.7421C56.4364 54.3938 57.7138 53.4195 59.2258 53.4195C60.7378 53.4195 62.0152 54.3938 62.496 55.7421H55.9556ZM67.5012 65.5852C66.5547 63.633 64.9707 62.1176 63.0488 61.2385C64.2554 60.1736 65.0323 58.6348 65.0323 56.9034C65.0323 53.7017 62.4275 51.0969 59.2258 51.0969C56.0241 51.0969 53.4194 53.7017 53.4194 56.9034C53.4194 58.6348 54.1963 60.1736 55.4028 61.2385C53.4809 62.1164 51.8969 63.633 50.9505 65.584C49.5917 63.82 48.7742 61.6194 48.7742 59.2259C48.7742 53.4636 53.4623 48.7743 59.2258 48.7743C64.9893 48.7743 69.6774 53.4636 69.6774 59.2259C69.6774 61.6194 68.8599 63.8212 67.5012 65.5852Z" fill="#616FF6"/>
<path d="M46.4516 31.355C46.4516 38.3982 52.1826 44.1292 59.2258 44.1292C66.269 44.1292 72 38.3982 72 31.355C72 24.3118 66.269 18.5808 59.2258 18.5808C52.1826 18.5808 46.4516 24.3118 46.4516 31.355ZM52.704 39.5084C53.6574 36.7143 56.2703 34.8389 59.2258 34.8389C62.1824 34.8389 64.7953 36.7143 65.7476 39.5084C63.958 40.9426 61.6924 41.8066 59.2258 41.8066C56.7592 41.8066 54.4935 40.9426 52.704 39.5084ZM55.9556 30.1937H62.4948C62.014 31.542 60.7366 32.5163 59.2246 32.5163C57.7126 32.5163 56.4364 31.542 55.9556 30.1937ZM55.9556 27.8711C56.4364 26.5229 57.7138 25.5485 59.2258 25.5485C60.7378 25.5485 62.0152 26.5229 62.496 27.8711H55.9556ZM59.2258 20.9034C64.9893 20.9034 69.6774 25.5927 69.6774 31.355C69.6774 33.7484 68.8598 35.9502 67.5011 37.7142C66.5547 35.7621 64.9707 34.2466 63.0488 33.3675C64.2553 32.3026 65.0322 30.7639 65.0322 29.0324C65.0322 25.8307 62.4275 23.226 59.2258 23.226C56.0241 23.226 53.4193 25.8307 53.4193 29.0324C53.4193 30.7639 54.1962 32.3026 55.4028 33.3675C53.4809 34.2454 51.8969 35.7621 50.9504 37.7131C49.5917 35.9491 48.7742 33.7484 48.7742 31.355C48.7742 25.5927 53.4623 20.9034 59.2258 20.9034Z" fill="#616FF6"/>
<path d="M17.4194 30.1936C15.4986 30.1936 13.9355 31.7567 13.9355 33.6775C13.9355 35.5982 15.4986 37.1613 17.4194 37.1613C19.3401 37.1613 20.9032 35.5982 20.9032 33.6775C20.9032 31.7567 19.3401 30.1936 17.4194 30.1936ZM17.4194 34.8388C16.7783 34.8388 16.2581 34.3173 16.2581 33.6775C16.2581 33.0376 16.7783 32.5162 17.4194 32.5162C18.0604 32.5162 18.5806 33.0376 18.5806 33.6775C18.5806 34.3173 18.0604 34.8388 17.4194 34.8388Z" fill="#616FF6"/>
<path d="M55.7419 11.613H58.0645V13.9356H55.7419V11.613Z" fill="#616FF6"/>
<path d="M60.3871 11.613H62.7097V13.9356H60.3871V11.613Z" fill="#616FF6"/>
<path d="M65.0322 11.613H67.3548V13.9356H65.0322V11.613Z" fill="#616FF6"/>
<path d="M27.871 33.6775C27.871 35.5982 29.4341 37.1613 31.3548 37.1613C33.2756 37.1613 34.8387 35.5982 34.8387 33.6775C34.8387 31.7567 33.2756 30.1936 31.3548 30.1936C29.4341 30.1936 27.871 31.7567 27.871 33.6775ZM32.5161 33.6775C32.5161 34.3173 31.9959 34.8388 31.3548 34.8388C30.7138 34.8388 30.1936 34.3173 30.1936 33.6775C30.1936 33.0376 30.7138 32.5162 31.3548 32.5162C31.9959 32.5162 32.5161 33.0376 32.5161 33.6775Z" fill="#616FF6"/>
<path d="M34.8387 24.3869C34.8387 26.3077 36.4018 27.8708 38.3225 27.8708C40.2433 27.8708 41.8064 26.3077 41.8064 24.3869C41.8064 22.4662 40.2433 20.9031 38.3225 20.9031C36.4018 20.9031 34.8387 22.4662 34.8387 24.3869ZM39.4838 24.3869C39.4838 25.0268 38.9636 25.5482 38.3225 25.5482C37.6815 25.5482 37.1613 25.0268 37.1613 24.3869C37.1613 23.7471 37.6815 23.2257 38.3225 23.2257C38.9636 23.2257 39.4838 23.7471 39.4838 24.3869Z" fill="#616FF6"/>
<path d="M44.8269 19.5097L45.5237 20.4388L47.3818 19.0464L46.685 18.1174C44.7212 15.4986 41.595 13.9355 38.3225 13.9355C35.05 13.9355 31.9238 15.4986 29.9612 18.1174L29.2645 19.0464L31.1225 20.4388L31.8193 19.5109C33.3464 17.474 35.777 16.2581 38.3225 16.2581C40.8681 16.2581 43.2987 17.474 44.8269 19.5097Z" fill="#616FF6"/>
<path d="M49.3955 13.8774L50.2758 14.7565L51.9178 13.1133L51.0376 12.2342C47.642 8.83861 43.1269 6.96777 38.3226 6.96777C33.5183 6.96777 29.0032 8.83861 25.6076 12.2342L24.7274 13.1133L26.3694 14.7565L27.2497 13.8763C30.2063 10.9196 34.1385 9.29035 38.3226 9.29035C42.5067 9.29035 46.4389 10.9196 49.3955 13.8774Z" fill="#616FF6"/>
<path d="M24.7772 7.33355C28.5468 4.10168 33.358 2.32258 38.3225 2.32258C43.2871 2.32258 48.0983 4.10168 51.8678 7.33355L53.8258 9.01045L55.3366 7.24645L53.3787 5.56955C49.1887 1.97884 43.8421 0 38.3225 0C32.8029 0 27.4563 1.97884 23.2664 5.56955L21.3096 7.24761L22.8205 9.01161L24.7772 7.33355Z" fill="#616FF6"/>
</svg>
